<?xml version="1.0" encoding="UTF-8" standalone="no"?>
<!-- Created with Inkscape (http://www.inkscape.org/) -->

<svg
   width="2725.1936"
   height="1484.0708"
   viewBox="-32 -16 785.04 427.51272"
   version="1.1"
   id="svg5"
   inkscape:version="1.2.2 (b0a8486541, 2022-12-01)"
   sodipodi:docname="logo.svg"
   xmlns:inkscape="http://www.inkscape.org/namespaces/inkscape"
   xmlns:sodipodi="http://sodipodi.sourceforge.net/DTD/sodipodi-0.dtd"
   xmlns="http://www.w3.org/2000/svg"
   xmlns:svg="http://www.w3.org/2000/svg">
  <sodipodi:namedview
     id="namedview7"
     pagecolor="#505050"
     bordercolor="#eeeeee"
     borderopacity="1"
     inkscape:showpageshadow="0"
     inkscape:pageopacity="0"
     inkscape:pagecheckerboard="0"
     inkscape:deskcolor="#505050"
     inkscape:document-units="mm"
     showgrid="false"
     showguides="true"
     inkscape:zoom="0.125"
     inkscape:cx="-128"
     inkscape:cy="412"
     inkscape:window-width="1920"
     inkscape:window-height="1056"
     inkscape:window-x="0"
     inkscape:window-y="0"
     inkscape:window-maximized="1"
     inkscape:current-layer="text236-3">
    <sodipodi:guide
       position="-9.3534013,270.93554"
       orientation="0,1"
       id="guide1086"
       inkscape:locked="false"
       inkscape:label=""
       inkscape:color="rgb(0,134,229)" />
    <sodipodi:guide
       position="126.11327,406.4022"
       orientation="-1,0"
       id="guide2540"
       inkscape:locked="false"
       inkscape:label=""
       inkscape:color="rgb(0,134,229)" />
    <sodipodi:guide
       position="721.04076,182.64416"
       orientation="1,0"
       id="guide544"
       inkscape:locked="false" />
    <sodipodi:guide
       position="156.29492,-4.7685629e-05"
       orientation="0,-1"
       id="guide546"
       inkscape:locked="false" />
    <sodipodi:guide
       position="144.65485,392.65902"
       orientation="0,-1"
       id="guide548"
       inkscape:locked="false" />
  </sodipodi:namedview>
  <defs
     id="defs2" />
  <g
     inkscape:label="Layer 1"
     inkscape:groupmode="layer"
     id="layer1"
     transform="translate(-9.3534014,-13.741808)">
    <g
       aria-label="AF"
       id="text236-3"
       style="font-size:50.8px;line-height:1.25;font-family:'Best School';-inkscape-font-specification:'Best School';letter-spacing:0px;word-spacing:0px;stroke-width:0.264583"
       transform="matrix(6.8474569,0,0,6.8474569,-826.31332,-1038.3531)">
      <text
         xml:space="preserve"
         style="font-style:normal;font-variant:normal;font-weight:normal;font-stretch:normal;font-size:26.378px;line-height:1.25;font-family:'Best School';-inkscape-font-specification:'Best School';letter-spacing:0px;word-spacing:0px;fill:#a88f21;fill-opacity:1;stroke-width:0.0102234"
         x="148.03954"
         y="172.11749"
         id="text187"><tspan
           sodipodi:role="line"
           style="font-style:normal;font-variant:normal;font-weight:normal;font-stretch:normal;font-size:26.378px;font-family:'Best School';-inkscape-font-specification:'Best School';fill:#a88f21;fill-opacity:1;stroke-width:0.0102234"
           x="148.03954"
           y="172.11749"
           id="tspan293">dvanced</tspan></text>
      <text
         xml:space="preserve"
         style="font-style:normal;font-variant:normal;font-weight:normal;font-stretch:normal;font-size:35.2372px;line-height:1.25;font-family:'Best School';-inkscape-font-specification:'Best School';letter-spacing:0px;word-spacing:0px;fill:#a88f21;fill-opacity:1;stroke-width:0.00910465"
         x="156.53966"
         y="210.99152"
         id="text303"><tspan
           sodipodi:role="line"
           id="tspan301"
           style="font-style:normal;font-variant:normal;font-weight:normal;font-stretch:normal;font-size:35.2372px;font-family:'Best School';-inkscape-font-specification:'Best School';fill:#a88f21;fill-opacity:1;stroke-width:0.00910465"
           x="156.53966"
           y="210.99152">orms</tspan></text>
      <path
         id="path475"
         style="fill:#a88f21;fill-opacity:1;stroke-width:0.265;stroke-dasharray:none"
         d="m 143.35181,153.64754 -8e-5,7e-5 c -0.0206,2.5e-4 -0.0411,8e-4 -0.0616,0.001 -0.0411,-8e-4 -0.0824,-0.001 -0.12437,-0.001 -1.32037,0 -2.54691,1.14935 -3.06748,2.0267 l -17.88419,28.85506 c -0.11573,0.41341 -0.17366,0.83513 -0.17366,1.26507 0.0496,1.00873 0.44653,1.83549 1.19066,2.48041 0.76068,0.62839 1.62883,0.9426 2.60448,0.9426 1.65364,0 2.76982,-0.85165 3.3486,-2.5549 l 1.04183,-3.37342 h 9.12809 l 0.49054,1.46129 0.14588,6.45712 c 0.14894,5.41138 0.27307,10.83106 0.37236,16.25899 0.0497,1.07566 0.41369,1.93622 1.09218,2.58161 0.67849,0.62884 1.53076,0.9432 2.55678,0.9432 1.07565,0 1.9527,-0.33927 2.63119,-1.01776 0.6785,-0.69504 1.01777,-1.58036 1.01777,-2.65602 l -0.12415,-3.97166 c -0.0827,-2.896 -0.12407,-4.51782 -0.12407,-4.86535 v -0.0743 h 4.31919 c 1.07565,0 1.94443,-0.34754 2.60637,-1.04259 0.67849,-0.69503 1.01776,-1.57208 1.01776,-2.63119 0,-1.05911 -0.33927,-1.92795 -1.01776,-2.60644 -0.66194,-0.69504 -1.53072,-1.04259 -2.60637,-1.04259 h -4.46816 l -0.17373,-8.39009 h 8.1667 c 1.07565,0 1.9445,-0.34754 2.60644,-1.04259 0.67849,-0.71159 1.01769,-1.58864 1.01769,-2.63119 0,-1.04256 -0.3392,-1.90313 -1.01769,-2.58162 -0.66194,-0.69504 -1.53079,-1.04251 -2.60644,-1.04251 h -7.97335 c 0.008,-0.6315 0.0116,-1.30657 0.0125,-2.02277 l 3.8e-4,3.7e-4 c 0,0 2.6e-4,-0.13624 1.5e-4,-0.34307 0,-0.004 0,-0.007 0,-0.0111 -10e-5,-0.15816 -4.2e-4,-0.34981 -10e-4,-0.60797 -0.003,-0.95025 -0.0118,-1.97224 -0.0279,-3.08672 l -0.17365,-8.38397 c 0,-1.00857 0.007,-2.03714 -0.0777,-2.99186 -0.005,-0.26485 -0.0103,-0.53161 -0.0148,-0.77603 -0.0497,-1.07566 -0.41376,-1.93623 -1.09225,-2.58162 -0.67849,-0.62884 -1.53068,-0.94327 -2.5567,-0.94327 z m -6.45335,15.5031 v 6.82126 h -4.41526 z" />
    </g>
  </g>
</svg>
